<?xml version="1.0" standalone="no"?>
<!DOCTYPE svg PUBLIC "-//W3C//DTD SVG 20010904//EN"
 "http://www.w3.org/TR/2001/REC-SVG-20010904/DTD/svg10.dtd">
<svg version="1.0" xmlns="http://www.w3.org/2000/svg"
 width="1024.000000pt" height="61.000000pt" viewBox="0 0 1024.000000 61.000000"
 preserveAspectRatio="xMidYMid meet">

<g transform="translate(0.000000,61.000000) scale(0.100000,-0.100000)"
fill="#000000" stroke="none">
<path d="M160 461 c0 -41 4 -71 10 -71 6 0 10 25 10 56 l0 57 44 -5 c131 -15
259 -143 274 -274 l5 -44 -57 0 c-31 0 -56 -4 -56 -10 0 -6 30 -10 71 -10 l71
0 -7 47 c-26 173 -145 292 -318 318 l-47 7 0 -71z"/>
<path d="M285 300 c-47 -48 -48 -48 -99 -43 -46 5 -54 2 -75 -21 -54 -58 -14
-150 65 -150 28 0 42 7 61 29 21 24 24 36 20 74 -5 44 -4 48 45 97 27 29 46
54 41 57 -5 4 -31 -16 -58 -43z m-65 -80 c40 -40 14 -110 -42 -110 -42 0 -68
25 -68 66 0 57 69 85 110 44z"/>
</g>
</svg>
