<?xml version="1.0" encoding="UTF-8"?>
<!DOCTYPE svg PUBLIC "-//W3C//DTD SVG 1.1//EN" "http://www.w3.org/Graphics/SVG/1.1/DTD/svg11.dtd">
<svg version="1.2" width="11.97mm" height="11.96mm" viewBox="0 0 1197 1196" preserveAspectRatio="xMidYMid" fill-rule="evenodd" stroke-width="28.222" stroke-linejoin="round" xmlns="http://www.w3.org/2000/svg" xmlns:ooo="http://xml.openoffice.org/svg/export" xmlns:xlink="http://www.w3.org/1999/xlink" xmlns:presentation="http://sun.com/xmlns/staroffice/presentation" xmlns:smil="http://www.w3.org/2001/SMIL20/" xmlns:anim="urn:oasis:names:tc:opendocument:xmlns:animation:1.0" xml:space="preserve">
 <defs class="ClipPathGroup">
  <clipPath id="presentation_clip_path" clipPathUnits="userSpaceOnUse">
   <rect x="0" y="0" width="1197" height="1196"/>
  </clipPath>
  <clipPath id="presentation_clip_path_shrink" clipPathUnits="userSpaceOnUse">
   <rect x="1" y="1" width="1195" height="1194"/>
  </clipPath>
 </defs>
 <defs class="TextShapeIndex">
  <g ooo:slide="id1" ooo:id-list="id3"/>
 </defs>
 <defs class="EmbeddedBulletChars">
  <g id="bullet-char-template-57356" transform="scale(0.00048828125,-0.00048828125)">
   <path d="M 580,1141 L 1163,571 580,0 -4,571 580,1141 Z"/>
  </g>
  <g id="bullet-char-template-57354" transform="scale(0.00048828125,-0.00048828125)">
   <path d="M 8,1128 L 1137,1128 1137,0 8,0 8,1128 Z"/>
  </g>
  <g id="bullet-char-template-10146" transform="scale(0.00048828125,-0.00048828125)">
   <path d="M 174,0 L 602,739 174,1481 1456,739 174,0 Z M 1358,739 L 309,1346 659,739 1358,739 Z"/>
  </g>
  <g id="bullet-char-template-10132" transform="scale(0.00048828125,-0.00048828125)">
   <path d="M 2015,739 L 1276,0 717,0 1260,543 174,543 174,936 1260,936 717,1481 1274,1481 2015,739 Z"/>
  </g>
  <g id="bullet-char-template-10007" transform="scale(0.00048828125,-0.00048828125)">
   <path d="M 0,-2 C -7,14 -16,27 -25,37 L 356,567 C 262,823 215,952 215,954 215,979 228,992 255,992 264,992 276,990 289,987 310,991 331,999 354,1012 L 381,999 492,748 772,1049 836,1024 860,1049 C 881,1039 901,1025 922,1006 886,937 835,863 770,784 769,783 710,716 594,584 L 774,223 C 774,196 753,168 711,139 L 727,119 C 717,90 699,76 672,76 641,76 570,178 457,381 L 164,-76 C 142,-110 111,-127 72,-127 30,-127 9,-110 8,-76 1,-67 -2,-52 -2,-32 -2,-23 -1,-13 0,-2 Z"/>
  </g>
  <g id="bullet-char-template-10004" transform="scale(0.00048828125,-0.00048828125)">
   <path d="M 285,-33 C 182,-33 111,30 74,156 52,228 41,333 41,471 41,549 55,616 82,672 116,743 169,778 240,778 293,778 328,747 346,684 L 369,508 C 377,444 397,411 428,410 L 1163,1116 C 1174,1127 1196,1133 1229,1133 1271,1133 1292,1118 1292,1087 L 1292,965 C 1292,929 1282,901 1262,881 L 442,47 C 390,-6 338,-33 285,-33 Z"/>
  </g>
  <g id="bullet-char-template-9679" transform="scale(0.00048828125,-0.00048828125)">
   <path d="M 813,0 C 632,0 489,54 383,161 276,268 223,411 223,592 223,773 276,916 383,1023 489,1130 632,1184 813,1184 992,1184 1136,1130 1245,1023 1353,916 1407,772 1407,592 1407,412 1353,268 1245,161 1136,54 992,0 813,0 Z"/>
  </g>
  <g id="bullet-char-template-8226" transform="scale(0.00048828125,-0.00048828125)">
   <path d="M 346,457 C 273,457 209,483 155,535 101,586 74,649 74,723 74,796 101,859 155,911 209,963 273,989 346,989 419,989 480,963 531,910 582,859 608,796 608,723 608,648 583,586 532,535 482,483 420,457 346,457 Z"/>
  </g>
  <g id="bullet-char-template-8211" transform="scale(0.00048828125,-0.00048828125)">
   <path d="M -4,459 L 1135,459 1135,606 -4,606 -4,459 Z"/>
  </g>
  <g id="bullet-char-template-61548" transform="scale(0.00048828125,-0.00048828125)">
   <path d="M 173,740 C 173,903 231,1043 346,1159 462,1274 601,1332 765,1332 928,1332 1067,1274 1183,1159 1299,1043 1357,903 1357,740 1357,577 1299,437 1183,322 1067,206 928,148 765,148 601,148 462,206 346,322 231,437 173,577 173,740 Z"/>
  </g>
 </defs>
 <defs class="TextEmbeddedBitmaps"/>
 <g>
  <g id="id2" class="Master_Slide">
   <g id="bg-id2" class="Background"/>
   <g id="bo-id2" class="BackgroundObjects"/>
  </g>
 </g>
 <g class="SlideGroup">
  <g>
   <g id="container-id1">
    <g id="id1" class="Slide" clip-path="url(#presentation_clip_path)">
     <g class="Page">
      <g class="Graphic">
       <g id="id3">
        <rect class="BoundingBox" stroke="none" fill="none" x="0" y="0" width="1197" height="1196"/>
        <defs>
         <clipPath id="clip_path_1" clipPathUnits="userSpaceOnUse">
          <path d="M 0,0 L 1196,0 1196,1195 0,1195 0,0 Z"/>
         </clipPath>
        </defs>
        <g clip-path="url(#clip_path_1)">
         <path fill="rgb(181,186,208)" stroke="none" d="M 802,711 C 802,712 802,713 802,714 802,739 797,759 785,780 777,793 769,804 757,814 747,821 739,827 729,833 696,852 664,862 625,864 L 625,957 568,957 568,866 C 566,866 563,866 560,866 500,866 449,856 394,834 L 394,743 C 423,757 449,766 480,773 510,781 537,785 568,786 L 568,625 532,612 C 515,606 501,600 485,591 464,578 447,565 430,547 424,541 420,535 415,527 403,505 397,484 397,459 397,457 397,456 397,454 397,454 397,453 397,452 397,430 402,411 413,391 421,377 430,367 443,357 451,351 458,346 467,341 500,322 531,313 568,311 L 568,238 626,238 626,309 C 685,311 736,322 791,344 L 759,423 C 714,405 674,395 625,391 L 625,548 658,560 C 680,567 697,575 717,586 737,598 754,610 771,626 777,633 782,639 786,647 797,667 802,686 802,708 802,709 802,710 802,711 L 802,711 Z M 498,455 C 498,466 500,475 506,484 508,488 510,491 513,494 522,502 530,508 540,514 550,519 558,523 569,527 L 569,393 C 554,395 541,398 528,406 524,409 520,411 516,414 511,418 508,422 505,428 500,436 498,444 498,453 498,453 498,453 498,453 498,454 498,454 498,455 Z M 701,718 C 701,717 701,716 701,716 701,706 699,698 694,689 691,684 688,680 684,676 676,670 669,666 661,661 649,654 638,649 625,645 L 625,782 C 676,775 701,753 701,718 Z"/>
         <path fill="rgb(181,186,208)" stroke="none" d="M 1078,1077 L 880,1105 908,908 1078,1077 Z"/>
         <path fill="rgb(181,186,208)" stroke="none" d="M 288,287 L 316,90 118,118 288,287 Z"/>
         <path fill="none" stroke="rgb(181,186,208)" stroke-width="66" stroke-linejoin="miter" d="M 1078,1077 L 880,1105 908,908 1078,1077 Z"/>
         <path fill="none" stroke="rgb(181,186,208)" stroke-width="66" stroke-linejoin="miter" d="M 288,287 L 316,90 118,118 288,287 Z"/>
         <path fill="none" stroke="rgb(181,186,208)" stroke-width="66" stroke-linejoin="miter" d="M 997,997 L 997,997 C 1034,960 1061,925 1087,880 1139,790 1163,701 1163,597 1163,494 1139,405 1087,315 1035,225 970,161 880,109 790,57 702,33 598,33 598,33 598,33 598,33"/>
         <path fill="none" stroke="rgb(181,186,208)" stroke-width="66" stroke-linejoin="miter" d="M 199,198 L 199,198 C 162,235 135,270 109,315 57,405 33,494 33,598 33,701 57,790 109,880 161,970 226,1034 316,1086 406,1138 494,1162 598,1162 598,1162 598,1162 598,1162"/>
        </g>
       </g>
      </g>
     </g>
    </g>
   </g>
  </g>
 </g>
</svg>